<svg width="132" height="132" viewBox="0 0 132 132" fill="none" xmlns="http://www.w3.org/2000/svg">
<path d="M88.6917 84.6466L71.0316 74.5834V94.8085C71.0316 97.571 68.7625 99.8402 66 99.8402C63.2375 99.8402 60.9684 97.571 60.9684 94.8085V74.5834L43.3084 84.6466C42.5191 85.1399 41.6311 85.3372 40.8419 85.3372C39.066 85.3372 37.3888 84.4493 36.5009 82.7721C35.1196 80.4043 36.0076 77.2472 38.3754 75.8659L55.8381 65.9013L38.3754 55.9368C36.0076 54.5555 35.1196 51.4971 36.5009 49.0306C37.8821 46.6628 40.9405 45.7748 43.407 47.1561L61.067 57.2193V37.0928C61.067 34.3303 63.3362 32.0612 66.0987 32.0612C68.8611 32.0612 71.1303 34.3303 71.1303 37.0928V57.2193L88.7903 47.1561C91.1581 45.7748 94.3152 46.6628 95.6965 49.0306C97.0777 51.3984 96.1898 54.5555 93.8219 55.9368L76.1619 65.9013L90.4675 74.0901H90.5662L125.097 93.8219C129.043 85.3372 131.312 75.9646 131.312 66C131.312 29.8907 102.109 0.6875 66 0.6875C29.8907 0.6875 0.6875 29.8907 0.6875 66C0.6875 102.109 29.8907 131.312 66 131.312C88.4943 131.312 108.325 119.967 120.065 102.603L88.7903 84.7453L88.6917 84.6466Z" fill="white"/>
</svg>
