<svg width="165" height="165" viewBox="0 0 165 165" fill="none" xmlns="http://www.w3.org/2000/svg">
<circle cx="82.5" cy="82.5" r="82.5" fill="white"/>
<circle cx="83" cy="83" r="75" fill="#0053F1"/>
<path d="M105.692 101.647L88.0316 91.5834V111.809C88.0316 114.571 85.7625 116.84 83 116.84C80.2375 116.84 77.9684 114.571 77.9684 111.809V91.5834L60.3083 101.647C59.5191 102.14 58.6311 102.337 57.8419 102.337C56.066 102.337 54.3888 101.449 53.5009 99.7721C52.1196 97.4043 53.0076 94.2472 55.3754 92.8659L72.8381 82.9013L55.3754 72.9367C53.0076 71.5555 52.1196 68.4971 53.5009 66.0306C54.8821 63.6628 57.9405 62.7748 60.407 64.1561L78.067 74.2193V54.0928C78.067 51.3303 80.3362 49.0612 83.0987 49.0612C85.8611 49.0612 88.1303 51.3303 88.1303 54.0928V74.2193L105.79 64.1561C108.158 62.7748 111.315 63.6628 112.696 66.0306C114.078 68.3984 113.19 71.5555 110.822 72.9367L93.1619 82.9013L107.468 91.0901H107.566L142.097 110.822C146.043 102.337 148.312 92.9646 148.312 83C148.312 46.8907 119.109 17.6875 83 17.6875C46.8907 17.6875 17.6875 46.8907 17.6875 83C17.6875 119.109 46.8907 148.312 83 148.312C105.494 148.312 125.325 136.967 137.065 119.603L105.79 101.745L105.692 101.647Z" fill="white"/>
</svg>
