<svg width="480" height="480" viewBox="0 0 480 480" fill="none" xmlns="http://www.w3.org/2000/svg">
<circle cx="240" cy="240" r="240" fill="#0053F1"/>
<path d="M312.613 299.669L256.101 267.467V332.187C256.101 341.027 248.84 348.289 240 348.289C231.16 348.289 223.899 341.027 223.899 332.187V267.467L167.387 299.669C164.861 301.248 162.02 301.879 159.494 301.879C153.811 301.879 148.444 299.038 145.603 293.671C141.183 286.094 144.024 275.991 151.601 271.571L207.482 239.684L151.601 207.798C144.024 203.378 141.183 193.591 145.603 185.698C150.023 178.121 159.81 175.279 167.702 179.699L224.215 211.902V147.497C224.215 138.657 231.476 131.396 240.316 131.396C249.156 131.396 256.417 138.657 256.417 147.497V211.902L312.929 179.699C320.506 175.279 330.609 178.121 335.029 185.698C339.449 193.275 336.607 203.378 329.03 207.798L272.518 239.684L318.296 265.888H318.612L429.11 329.03C441.739 301.879 449 271.887 449 240C449 124.45 355.55 31 240 31C124.45 31 31 124.45 31 240C31 355.55 124.45 449 240 449C311.982 449 375.44 412.693 413.009 357.128L312.929 299.985L312.613 299.669Z" fill="white"/>
</svg>
